<svg version="1.1" id="Layer_1" xmlns="http://www.w3.org/2000/svg" xmlns:xlink="http://www.w3.org/1999/xlink" x="0px" y="0px"
	 width="100%" viewBox="0 0 1864 1166" enable-background="new 0 0 1864 1166" xml:space="preserve">
<path fill="#FFFFFF" opacity="1.000000" stroke="none" 
	d="
M788.000000,1.000000 
	C821.687561,1.000000 855.375122,1.000000 889.599243,1.188824 
	C890.260986,1.618970 890.434631,1.818001 890.763916,2.020421 
	C890.871033,2.066103 891.100891,2.028510 891.040283,2.491811 
	C890.979736,179.230591 890.979736,355.506073 890.979736,532.037964 
	C893.789917,532.037964 895.937805,532.038025 898.085693,532.038025 
	C1218.217041,532.038147 1538.348267,532.038452 1858.479614,532.032532 
	C1860.310059,532.032471 1862.140381,531.944336 1863.938232,532.013550 
	C1863.905640,532.129822 1864.023926,532.340332 1864.156860,532.490601 
	C1864.488281,532.836121 1864.724976,532.955811 1865.000000,533.000000 
	C1865.000000,565.020874 1865.000000,597.041809 1864.724365,629.532593 
	C1864.266724,630.025635 1864.084473,630.048767 1863.441772,630.028931 
	C1733.080078,629.985901 1603.178833,629.985901 1472.970825,629.985901 
	C1472.970825,632.573242 1472.970703,634.547607 1472.970703,636.522034 
	C1472.970703,811.150635 1472.970581,985.779236 1472.974976,1160.407837 
	C1472.975098,1162.239380 1473.037720,1164.071045 1473.036743,1166.175781 
	C1473.001465,1166.632690 1473.000732,1166.816284 1473.000000,1167.000000 
	C1441.312378,1167.000000 1409.624878,1167.000000 1377.400513,1166.810059 
	C1376.738403,1166.377441 1376.565308,1166.175903 1376.237305,1165.975464 
	C1376.130371,1165.935425 1375.905884,1165.976196 1375.967407,1165.512695 
	C1376.028931,987.141113 1376.028931,809.233093 1376.028931,631.201660 
	C1082.114136,631.201660 788.751587,631.201660 494.949738,631.201660 
	C494.949738,633.074524 494.949707,634.698975 494.949738,636.323364 
	C494.949860,653.360718 494.950012,670.398132 494.950043,687.435486 
	C494.950104,709.308167 494.950073,731.180908 494.950073,753.053589 
	C494.950073,888.697571 494.949432,1024.341553 494.956024,1159.985474 
	C494.956116,1161.982300 495.045898,1163.979248 494.980896,1165.955933 
	C494.867950,1165.935791 494.653229,1166.016724 494.505798,1166.152100 
	C494.179962,1166.495239 494.060516,1166.732788 494.000000,1167.000000 
	C462.312439,1167.000000 430.624878,1167.000000 398.456055,1166.720337 
	C397.946747,1166.256226 397.918671,1166.071655 397.937378,1165.427979 
	C398.027191,1162.303101 398.107819,1159.637573 398.107941,1156.971924 
	C398.113892,984.473328 398.113434,811.974731 398.113464,639.476135 
	C398.113464,637.713989 398.113464,635.951782 398.113464,633.886658 
	C395.805847,633.886658 394.161072,633.886658 392.516266,633.886658 
	C263.850616,633.886597 135.184982,633.886169 6.519353,633.892273 
	C5.021839,633.892334 3.524329,633.976990 1.770909,633.979614 
	C1.343334,633.958008 1.171667,633.979004 1.000000,634.000000 
	C1.000000,600.645752 1.000000,567.291565 1.214257,533.509766 
	C1.428514,533.082214 1.864811,533.087158 2.095507,533.389282 
	C4.627385,533.510376 6.928551,533.170959 9.229747,533.170776 
	C264.512909,533.146851 519.796082,533.148315 775.079224,533.148315 
	C779.287659,533.148315 783.496094,533.148254 788.148376,533.148254 
	C788.148376,530.293823 788.148376,527.145142 788.148376,523.996399 
	C788.148315,353.863159 788.150024,183.729889 788.137390,13.596642 
	C788.137085,9.767569 787.974304,5.938509 787.932495,1.833803 
	C787.985107,1.372109 787.992554,1.186055 788.000000,1.000000 
z"/>
<path fill="#FFFFFF" opacity="1.000000" stroke="none" 
	d="
M1.000000,287.000000 
	C1.000000,191.739609 1.000000,96.479210 1.000000,1.000000 
	C96.020782,1.000000 191.041733,1.000000 286.432404,1.174381 
	C286.802124,1.348762 286.861847,1.745266 286.626526,2.085838 
	C277.528564,3.162910 268.654083,3.780113 259.805786,4.660799 
	C241.508072,6.482001 223.799545,11.004401 206.289566,16.470177 
	C185.982422,22.809101 166.883255,31.818235 148.494446,42.386402 
	C127.860107,54.245094 108.950333,68.475395 91.971870,85.131447 
	C84.065086,92.888092 76.155510,100.846458 69.566772,109.695862 
	C58.711456,124.275795 48.102787,139.168900 38.906033,154.820679 
	C27.936209,173.489990 19.639359,193.563065 13.834638,214.514832 
	C7.694541,236.677109 3.193145,259.137756 2.616105,282.239960 
	C2.577467,283.786865 2.047681,285.321472 1.533381,286.753937 
	C1.320428,286.646057 1.000000,287.000000 1.000000,287.000000 
z"/>
<path fill="#FFFFFF" opacity="1.000000" stroke="none" 
	d="
M1579.000000,1.000000 
	C1674.260376,1.000000 1769.520752,1.000000 1865.000000,1.000000 
	C1865.000000,96.020782 1865.000000,191.041733 1864.783203,286.444580 
	C1864.566528,286.826477 1864.113892,286.940399 1863.766602,286.702087 
	C1862.694946,277.609039 1862.083618,268.743286 1861.223022,259.901794 
	C1859.428711,241.467850 1854.844604,223.638504 1849.316895,206.018509 
	C1842.968994,185.783920 1833.959717,166.748276 1823.409790,148.413147 
	C1811.654541,127.983459 1797.561035,109.262558 1781.110352,92.415726 
	C1773.385010,84.504333 1765.072510,77.127670 1756.666260,69.928864 
	C1742.581665,57.867233 1727.206787,47.590572 1710.910522,38.760303 
	C1692.038696,28.534525 1672.470581,19.890623 1651.751831,14.076163 
	C1629.477051,7.825021 1606.901733,3.323753 1583.673950,2.734281 
	C1582.129883,2.695095 1580.597900,2.179171 1579.079468,1.661406 
	C1579.098633,1.437824 1579.000000,1.000000 1579.000000,1.000000 
z"/>
<path fill="#FFFFFF" opacity="1.000000" stroke="none" 
	d="
M287.000000,1167.000000 
	C191.739609,1167.000000 96.479210,1167.000000 1.000000,1167.000000 
	C1.000000,1071.979248 1.000000,976.958252 1.179718,881.621460 
	C1.359436,881.305542 1.790841,881.114685 2.137093,881.347168 
	C3.212920,890.436646 3.835804,899.304016 4.694331,908.148499 
	C6.469679,926.437927 11.013869,944.130005 16.468424,961.618713 
	C22.842257,982.054749 31.951162,1001.257690 42.589722,1019.775146 
	C53.932919,1039.519287 67.529259,1057.630005 83.247833,1074.042847 
	C91.357132,1082.510376 99.854507,1090.814819 109.185616,1097.855713 
	C123.807762,1108.888916 138.724472,1119.756348 154.542953,1128.922363 
	C173.802353,1140.082275 194.391251,1148.681641 216.064453,1154.472778 
	C237.962265,1160.323853 260.016968,1164.891846 282.775116,1165.347900 
	C284.150513,1165.375244 285.515839,1165.908325 286.840881,1166.415161 
	C286.795898,1166.624146 287.000000,1167.000000 287.000000,1167.000000 
z"/>
<path fill="#FFFFFF" opacity="1.000000" stroke="none" 
	d="
M1865.000000,881.000000 
	C1865.000000,976.260376 1865.000000,1071.520752 1865.000000,1167.000000 
	C1769.979248,1167.000000 1674.958252,1167.000000 1579.527100,1166.777344 
	C1579.116943,1166.554565 1579.050781,1166.098877 1579.290283,1165.750488 
	C1588.385376,1164.678101 1597.372681,1164.671997 1606.068726,1163.077026 
	C1623.035767,1159.964722 1640.002686,1156.580322 1656.670776,1152.176880 
	C1678.452759,1146.422852 1698.580322,1136.427368 1718.012451,1125.176392 
	C1739.126099,1112.951904 1758.468506,1098.284058 1775.709717,1080.999023 
	C1783.053955,1073.636230 1790.549194,1066.225952 1796.660767,1057.874756 
	C1807.553101,1042.990723 1818.202026,1027.820923 1827.557861,1011.948364 
	C1838.361328,993.620361 1846.384644,973.847290 1852.076782,953.286133 
	C1858.245239,931.004639 1862.819092,908.416138 1863.253784,885.166748 
	C1863.279541,883.789917 1863.805176,882.422424 1864.327271,881.101562 
	C1864.556274,881.152588 1865.000000,881.000000 1865.000000,881.000000 
z"/>
<path fill="#F1BCBC" opacity="1.000000" stroke="none" 
	d="
M1376.000000,1167.000000 
	C1082.637329,1167.000000 789.274597,1167.000000 495.400635,1166.743164 
	C494.810608,1166.329712 494.731903,1166.173218 494.653229,1166.016724 
	C494.653229,1166.016724 494.867950,1165.935791 495.442871,1165.965332 
	C593.172119,1165.996582 690.326416,1166.001953 787.480713,1165.999268 
	C983.622437,1165.993896 1179.764160,1165.984131 1375.905884,1165.976196 
	C1375.905884,1165.976196 1376.130371,1165.935425 1376.118774,1166.210449 
	C1376.071411,1166.657104 1376.035767,1166.828491 1376.000000,1167.000000 
z"/>
<path fill="#F2BFBF" opacity="1.000000" stroke="none" 
	d="
M1578.540283,1.000000 
	C1579.000000,1.000000 1579.098633,1.437824 1578.608032,1.705860 
	C1549.804077,1.982986 1521.490723,1.998565 1493.177368,2.000126 
	C1292.485229,2.011197 1091.793091,2.019396 891.100891,2.028510 
	C891.100891,2.028510 890.871033,2.066103 890.881836,1.787797 
	C890.928406,1.339662 890.964172,1.169831 891.000000,1.000000 
	C1120.026855,1.000000 1349.053711,1.000000 1578.540283,1.000000 
z"/>
<path fill="#EEABAB" opacity="1.000000" stroke="none" 
	d="
M286.861847,1.745266 
	C286.861847,1.745266 286.802124,1.348762 286.901062,1.174381 
	C453.691559,1.000000 620.383118,1.000000 787.537354,1.000000 
	C787.992554,1.186055 787.985107,1.372109 787.473145,1.792164 
	C622.924255,2.017938 458.879852,2.010918 294.835449,1.990848 
	C292.177582,1.990523 289.519714,1.830673 286.861847,1.745266 
z"/>
<path fill="#F2C2C2" opacity="1.000000" stroke="none" 
	d="
M1865.000000,880.531372 
	C1865.000000,881.000000 1864.556274,881.152588 1864.288696,880.630432 
	C1864.014038,837.020996 1864.017212,793.933655 1863.996948,750.846375 
	C1863.978149,710.588257 1863.934692,670.330078 1863.902100,630.071960 
	C1864.084473,630.048767 1864.266724,630.025635 1864.724365,630.001282 
	C1865.000000,713.354248 1865.000000,796.708435 1865.000000,880.531372 
z"/>
<path fill="#EFB0B0" opacity="1.000000" stroke="none" 
	d="
M1.790840,881.114685 
	C1.790841,881.114685 1.359436,881.305542 1.179718,881.152771 
	C1.000000,798.979126 1.000000,716.958191 1.000000,634.468628 
	C1.171667,633.979004 1.343334,633.958008 1.761138,634.446533 
	C2.005273,714.849915 2.004919,794.743713 1.992455,874.637573 
	C1.992118,876.796631 1.860982,878.955627 1.790840,881.114685 
z"/>
<path fill="#EEABAB" opacity="1.000000" stroke="none" 
	d="
M1.000000,287.468658 
	C1.000000,287.000000 1.320428,286.646057 1.629081,287.226074 
	C1.959029,364.073090 1.983231,440.340088 1.995529,516.607117 
	C1.996415,522.100464 1.910414,527.593811 1.864811,533.087158 
	C1.864811,533.087158 1.428514,533.082214 1.214257,533.041138 
	C1.000000,451.312439 1.000000,369.624878 1.000000,287.468658 
z"/>
<path fill="#F2BFBF" opacity="1.000000" stroke="none" 
	d="
M1864.113892,286.940399 
	C1864.113892,286.940399 1864.566528,286.826477 1864.783203,286.913239 
	C1865.000000,368.354218 1865.000000,449.708466 1864.745117,531.585327 
	C1864.334839,532.185486 1864.179321,532.262939 1864.023926,532.340332 
	C1864.023926,532.340332 1863.905640,532.129822 1863.949341,531.552124 
	C1863.995239,472.751251 1863.987183,414.528015 1864.004883,356.304779 
	C1864.011963,333.183319 1864.075928,310.061859 1864.113892,286.940399 
z"/>
<path fill="#EFB0B0" opacity="1.000000" stroke="none" 
	d="
M287.468658,1167.000000 
	C287.000000,1167.000000 286.795898,1166.624146 287.313354,1166.336304 
	C324.517395,1165.994751 361.204010,1165.940918 397.890625,1165.887207 
	C397.918671,1166.071655 397.946747,1166.256226 397.987427,1166.720337 
	C361.312439,1167.000000 324.624878,1167.000000 287.468658,1167.000000 
z"/>
<path fill="#F2C2C2" opacity="1.000000" stroke="none" 
	d="
M1579.050781,1166.098877 
	C1579.050781,1166.098877 1579.116943,1166.554565 1579.058472,1166.777344 
	C1543.979126,1167.000000 1508.958130,1167.000000 1473.468628,1167.000000 
	C1473.000732,1166.816284 1473.001465,1166.632690 1473.499146,1166.214111 
	C1509.014282,1166.019043 1544.032593,1166.058960 1579.050781,1166.098877 
z"/>
<path fill="#FCF1F1" opacity="1.000000" stroke="none" 
	d="
M1864.156860,532.490601 
	C1864.179321,532.262939 1864.334839,532.185486 1864.745117,532.053955 
	C1865.000000,532.000000 1865.000000,532.500000 1865.000000,532.750000 
	C1864.724976,532.955811 1864.488281,532.836121 1864.156860,532.490601 
z"/>
<path fill="#FCF1F1" opacity="1.000000" stroke="none" 
	d="
M890.750000,1.000000 
	C890.964172,1.169831 890.928406,1.339662 890.774658,1.742116 
	C890.434631,1.818001 890.260986,1.618970 890.067871,1.188824 
	C890.000000,1.000000 890.500000,1.000000 890.750000,1.000000 
z"/>
<path fill="#FBEDED" opacity="1.000000" stroke="none" 
	d="
M494.505798,1166.152100 
	C494.731903,1166.173218 494.810608,1166.329712 494.944672,1166.743164 
	C495.000000,1167.000000 494.500000,1167.000000 494.250000,1167.000000 
	C494.060516,1166.732788 494.179962,1166.495239 494.505798,1166.152100 
z"/>
<path fill="#FBEDED" opacity="1.000000" stroke="none" 
	d="
M1376.250000,1167.000000 
	C1376.035767,1166.828491 1376.071411,1166.657104 1376.225708,1166.250488 
	C1376.565308,1166.175903 1376.738403,1166.377441 1376.931885,1166.810059 
	C1377.000000,1167.000000 1376.500000,1167.000000 1376.250000,1167.000000 
z"/>
<path fill="#D73D3D" opacity="1.000000" stroke="none" 
	d="
M1863.766602,286.702087 
	C1864.075928,310.061859 1864.011963,333.183319 1864.004883,356.304779 
	C1863.987183,414.528015 1863.995239,472.751251 1863.981934,531.435913 
	C1862.140381,531.944336 1860.310059,532.032471 1858.479614,532.032532 
	C1538.348267,532.038452 1218.217041,532.038147 898.085693,532.038025 
	C895.937805,532.038025 893.789917,532.037964 890.979736,532.037964 
	C890.979736,355.506073 890.979736,179.230591 891.040283,2.491811 
	C1091.793091,2.019396 1292.485229,2.011197 1493.177368,2.000126 
	C1521.490723,1.998565 1549.804077,1.982986 1578.588867,1.929442 
	C1580.597900,2.179171 1582.129883,2.695095 1583.673950,2.734281 
	C1606.901733,3.323753 1629.477051,7.825021 1651.751831,14.076163 
	C1672.470581,19.890623 1692.038696,28.534525 1710.910522,38.760303 
	C1727.206787,47.590572 1742.581665,57.867233 1756.666260,69.928864 
	C1765.072510,77.127670 1773.385010,84.504333 1781.110352,92.415726 
	C1797.561035,109.262558 1811.654541,127.983459 1823.409790,148.413147 
	C1833.959717,166.748276 1842.968994,185.783920 1849.316895,206.018509 
	C1854.844604,223.638504 1859.428711,241.467850 1861.223022,259.901794 
	C1862.083618,268.743286 1862.694946,277.609039 1863.766602,286.702087 
z"/>
<path fill="#D73D3D" opacity="1.000000" stroke="none" 
	d="
M1375.967407,1165.512695 
	C1179.764160,1165.984131 983.622437,1165.993896 787.480713,1165.999268 
	C690.326416,1166.001953 593.172119,1165.996582 495.555817,1165.985596 
	C495.045898,1163.979248 494.956116,1161.982300 494.956024,1159.985474 
	C494.949432,1024.341553 494.950073,888.697571 494.950073,753.053589 
	C494.950073,731.180908 494.950104,709.308167 494.950043,687.435486 
	C494.950012,670.398132 494.949860,653.360718 494.949738,636.323364 
	C494.949707,634.698975 494.949738,633.074524 494.949738,631.201660 
	C788.751587,631.201660 1082.114136,631.201660 1376.028931,631.201660 
	C1376.028931,809.233093 1376.028931,987.141113 1375.967407,1165.512695 
z"/>
<path fill="#D73D3D" opacity="1.000000" stroke="none" 
	d="
M2.095507,533.389282 
	C1.910414,527.593811 1.996415,522.100464 1.995529,516.607117 
	C1.983231,440.340088 1.959029,364.073090 1.842033,287.333923 
	C2.047681,285.321472 2.577467,283.786865 2.616105,282.239960 
	C3.193145,259.137756 7.694541,236.677109 13.834638,214.514832 
	C19.639359,193.563065 27.936209,173.489990 38.906033,154.820679 
	C48.102787,139.168900 58.711456,124.275795 69.566772,109.695862 
	C76.155510,100.846458 84.065086,92.888092 91.971870,85.131447 
	C108.950333,68.475395 127.860107,54.245094 148.494446,42.386402 
	C166.883255,31.818235 185.982422,22.809101 206.289566,16.470177 
	C223.799545,11.004401 241.508072,6.482001 259.805786,4.660799 
	C268.654083,3.780113 277.528564,3.162910 286.626526,2.085838 
	C289.519714,1.830673 292.177582,1.990523 294.835449,1.990848 
	C458.879852,2.010918 622.924255,2.017938 787.428040,2.067804 
	C787.974304,5.938509 788.137085,9.767569 788.137390,13.596642 
	C788.150024,183.729889 788.148315,353.863159 788.148376,523.996399 
	C788.148376,527.145142 788.148376,530.293823 788.148376,533.148254 
	C783.496094,533.148254 779.287659,533.148315 775.079224,533.148315 
	C519.796082,533.148315 264.512909,533.146851 9.229747,533.170776 
	C6.928551,533.170959 4.627385,533.510376 2.095507,533.389282 
z"/>
<path fill="#D73D3D" opacity="1.000000" stroke="none" 
	d="
M397.937378,1165.427979 
	C361.204010,1165.940918 324.517395,1165.994751 287.358307,1166.127319 
	C285.515839,1165.908325 284.150513,1165.375244 282.775116,1165.347900 
	C260.016968,1164.891846 237.962265,1160.323853 216.064453,1154.472778 
	C194.391251,1148.681641 173.802353,1140.082275 154.542953,1128.922363 
	C138.724472,1119.756348 123.807762,1108.888916 109.185616,1097.855713 
	C99.854507,1090.814819 91.357132,1082.510376 83.247833,1074.042847 
	C67.529259,1057.630005 53.932919,1039.519287 42.589722,1019.775146 
	C31.951162,1001.257690 22.842257,982.054749 16.468424,961.618713 
	C11.013869,944.130005 6.469679,926.437927 4.694331,908.148499 
	C3.835804,899.304016 3.212920,890.436646 2.137092,881.347168 
	C1.860982,878.955627 1.992118,876.796631 1.992455,874.637573 
	C2.004919,794.743713 2.005273,714.849915 2.017046,634.489136 
	C3.524329,633.976990 5.021839,633.892334 6.519353,633.892273 
	C135.184982,633.886169 263.850616,633.886597 392.516266,633.886658 
	C394.161072,633.886658 395.805847,633.886658 398.113464,633.886658 
	C398.113464,635.951782 398.113464,637.713989 398.113464,639.476135 
	C398.113434,811.974731 398.113892,984.473328 398.107941,1156.971924 
	C398.107819,1159.637573 398.027191,1162.303101 397.937378,1165.427979 
z"/>
<path fill="#D73D3D" opacity="1.000000" stroke="none" 
	d="
M1579.290283,1165.750488 
	C1544.032593,1166.058960 1509.014282,1166.019043 1473.533691,1165.940796 
	C1473.037720,1164.071045 1472.975098,1162.239380 1472.974976,1160.407837 
	C1472.970581,985.779236 1472.970703,811.150635 1472.970703,636.522034 
	C1472.970703,634.547607 1472.970825,632.573242 1472.970825,629.985901 
	C1603.178833,629.985901 1733.080078,629.985901 1863.441772,630.028931 
	C1863.934692,670.330078 1863.978149,710.588257 1863.996948,750.846375 
	C1864.017212,793.933655 1864.014038,837.020996 1864.059692,880.579468 
	C1863.805176,882.422424 1863.279541,883.789917 1863.253784,885.166748 
	C1862.819092,908.416138 1858.245239,931.004639 1852.076782,953.286133 
	C1846.384644,973.847290 1838.361328,993.620361 1827.557861,1011.948364 
	C1818.202026,1027.820923 1807.553101,1042.990723 1796.660767,1057.874756 
	C1790.549194,1066.225952 1783.053955,1073.636230 1775.709717,1080.999023 
	C1758.468506,1098.284058 1739.126099,1112.951904 1718.012451,1125.176392 
	C1698.580322,1136.427368 1678.452759,1146.422852 1656.670776,1152.176880 
	C1640.002686,1156.580322 1623.035767,1159.964722 1606.068726,1163.077026 
	C1597.372681,1164.671997 1588.385376,1164.678101 1579.290283,1165.750488 
z"/>
</svg>